<?xml version="1.0" standalone="no"?>
<!DOCTYPE svg PUBLIC "-//W3C//DTD SVG 20010904//EN"
 "http://www.w3.org/TR/2001/REC-SVG-20010904/DTD/svg10.dtd">
<svg version="1.0" xmlns="http://www.w3.org/2000/svg"
 width="256.000000pt" height="256.000000pt" viewBox="0 0 256.000000 256.000000"
 preserveAspectRatio="xMidYMid meet">
<metadata>
Created by potrace 1.11, written by Peter Selinger 2001-2013
</metadata>
<g transform="translate(0.000000,256.000000) scale(0.100000,-0.100000)"
fill="#000000" stroke="none">
<path d="M0 1280 l0 -1280 1280 0 1280 0 0 1280 0 1280 -1280 0 -1280 0 0
-1280z m1305 65 c0 -27 -3 -30 -30 -30 -21 0 -31 5 -33 18 -6 33 6 49 35 45
24 -3 28 -8 28 -33z m-138 -82 c-3 -10 -5 -4 -5 12 0 17 2 24 5 18 2 -7 2 -21
0 -30z m46 29 c3 7 6 0 6 -16 1 -23 -2 -26 -13 -17 -11 9 -15 9 -19 -1 -3 -7
-6 0 -6 16 -1 23 2 26 13 17 11 -9 15 -9 19 1z m40 1 c-7 -2 -13 -11 -13 -18
0 -7 6 -16 13 -18 7 -3 5 -6 -5 -6 -13 -1 -18 7 -18 24 0 17 5 25 18 24 10 0
12 -3 5 -6z m57 -18 c0 -18 -5 -25 -20 -25 -15 0 -20 7 -20 25 0 18 5 25 20
25 15 0 20 -7 20 -25z m40 14 c0 -5 -6 -7 -12 -3 -9 5 -8 2 1 -9 8 -10 11 -20
7 -24 -3 -3 -6 0 -6 8 0 11 -2 11 -10 -1 -8 -12 -10 -9 -10 13 0 17 5 27 15
27 8 0 15 -5 15 -11z m35 1 c-17 -7 -17 -9 -2 -9 9 -1 17 -8 17 -16 0 -9 -9
-15 -22 -14 -22 0 -22 1 -3 9 17 7 17 9 3 9 -10 1 -18 8 -18 16 0 9 9 15 23
14 21 0 21 -1 2 -9z m-167 -57 c-19 -5 -25 -33 -7 -33 5 0 7 5 4 10 -3 6 -1
10 4 10 6 0 11 -7 11 -15 0 -8 -9 -15 -20 -15 -15 0 -20 7 -20 25 0 20 5 25
23 24 16 -1 18 -2 5 -6z m112 -32 c0 -6 -7 -11 -15 -11 -9 0 -15 10 -15 26 0
23 2 24 15 10 8 -8 15 -19 15 -25z m40 -3 c0 -10 -2 -10 -9 1 -7 11 -9 11 -14
0 -3 -8 -6 -1 -6 14 -1 25 1 27 14 13 8 -8 15 -21 15 -28z m-80 5 c0 -15 -2
-16 -10 -3 -9 13 -10 13 -10 0 0 -12 -2 -13 -9 -1 -7 11 -9 11 -14 0 -4 -10
-6 -9 -6 4 -1 12 7 17 24 17 17 0 25 -5 25 -17z"/>
<path d="M1250 1345 c0 -20 5 -25 25 -25 20 0 25 5 25 25 0 20 -5 25 -25 25
-20 0 -25 -5 -25 -25z m31 8 c-11 -5 -11 -7 0 -14 11 -7 10 -9 -3 -9 -10 0
-18 7 -18 15 0 8 8 15 18 14 12 0 13 -2 3 -6z"/>
<path d="M1280 1275 c0 -8 5 -15 10 -15 6 0 10 7 10 15 0 8 -4 15 -10 15 -5 0
-10 -7 -10 -15z"/>
</g>
</svg>
